HIERARCHY
ROOT Hips
{
	OFFSET 0.000000 0.000000 0.000000 
	CHANNELS 6 Xposition Yposition Zposition Zrotation Yrotation Xrotation
	JOINT LeftUpLeg
	{
		OFFSET 1.363060 -1.794630 0.839290 
		CHANNELS 3 Zrotation Yrotation Xrotation
		JOINT LeftLeg
		{
			OFFSET 2.448110 -6.726130 0.000000 
			CHANNELS 3 Zrotation Yrotation Xrotation
			JOINT LeftFoot
			{
				OFFSET 2.562200 -7.039590 0.000000 
				CHANNELS 3 Zrotation Yrotation Xrotation
				JOINT LeftToeBase
				{
					OFFSET 0.157640 -0.433110 2.322550 
					CHANNELS 3 Zrotation Yrotation Xrotation
					End Site
					{
						OFFSET 0.000000 0.000000 0.000000 
					}
				}
			}
		}
	}
	JOINT RightUpLeg
	{
		OFFSET -1.305520 -1.794630 0.839290 
		CHANNELS 3 Zrotation Yrotation Xrotation
		JOINT RightLeg
		{
			OFFSET -2.542530 -6.985550 0.000000 
			CHANNELS 3 Zrotation Yrotation Xrotation
			JOINT RightFoot
			{
				OFFSET -2.568260 -7.056230 0.000000 
				CHANNELS 3 Zrotation Yrotation Xrotation
				JOINT RightToeBase
				{
					OFFSET -0.164730 -0.452590 2.363150 
					CHANNELS 3 Zrotation Yrotation Xrotation
					End Site
					{
						OFFSET 0.000000 0.000000 0.000000 
					}
				}
			}
		}
	}
	JOINT Spine
	{
		OFFSET 0.028270 2.035590 -0.193380 
		CHANNELS 3 Zrotation Yrotation Xrotation
		JOINT Spine1
		{
			OFFSET 0.056720 2.048850 -0.042750 
			CHANNELS 3 Zrotation Yrotation Xrotation
			JOINT Neck1
			{
				OFFSET -0.054170 1.746240 0.172020 
				CHANNELS 3 Zrotation Yrotation Xrotation
				JOINT Head
				{
					OFFSET 0.104070 1.761360 -0.123970 
					CHANNELS 3 Zrotation Yrotation Xrotation
					End Site
					{
						OFFSET 0.000000 0.000000 0.000000 
					}
				}
			}
			JOINT LeftArm
			{
				OFFSET 3.362410 1.200890 -0.311210 
				CHANNELS 3 Zrotation Yrotation Xrotation
				JOINT LeftForeArm
				{
					OFFSET 4.983000 -0.000000 -0.000000 
					CHANNELS 3 Zrotation Yrotation Xrotation
					JOINT LeftHand
					{
						OFFSET 3.483560 -0.000000 -0.000000 
						CHANNELS 3 Zrotation Yrotation Xrotation
						JOINT LeftHandIndex1
						{
							OFFSET 0.715260 -0.000000 -0.000000 
							CHANNELS 3 Zrotation Yrotation Xrotation
							End Site
							{
								OFFSET 0.000000 0.000000 0.000000 
							}
						}
					}
				}
			}
			JOINT RightArm
			{
				OFFSET -3.136600 1.374050 -0.404650 
				CHANNELS 3 Zrotation Yrotation Xrotation
				JOINT RightForeArm
				{
					OFFSET -5.241900 -0.000000 -0.000000 
					CHANNELS 3 Zrotation Yrotation Xrotation
					JOINT RightHand
					{
						OFFSET -3.444170 -0.000000 -0.000000 
						CHANNELS 3 Zrotation Yrotation Xrotation
						JOINT RightHandIndex1
						{
							OFFSET -0.622530 -0.000000 -0.000000 
							CHANNELS 3 Zrotation Yrotation Xrotation
							End Site
							{
								OFFSET 0.000000 0.000000 0.000000 
							}
						}
					}
				}
			}
		}
	}
}
MOTION
Frames: 13
Frame Time: 0.041667
6.165840 17.372186 -8.875323 -2.901296 2.284802 5.379967 -8.167767 -13.662311 -15.447033 -0.247984 8.745290 26.457817 -0.609462 5.314920 -8.556690 2.128200 -9.128200 -26.197200 31.001559 10.694727 -8.357551 -0.472093 -9.164940 31.218099 0.367267 -19.331663 -28.845937 -0.835300 -5.830300 16.292800 0.969011 -0.999029 -5.650445 3.322563 0.017203 -9.251970 7.280298 0.104807 -0.006660 3.433000 0.211900 -1.259500 15.830564 -12.426229 -31.769773 14.763942 -20.780505 -3.857218 -1.106513 -2.345695 29.139799 -7.125000 0.000000 0.000000 -46.397254 20.153258 -56.276019 -12.546185 23.076472 -2.192246 1.090919 0.165329 -1.740242 7.125000 0.000000 0.000000 
6.160007 17.371970 -8.884719 -2.962210 2.252590 5.444263 -8.058367 -13.817731 -15.401228 -0.281821 8.695638 26.299505 -0.682473 5.607284 -8.475659 2.129900 -9.131500 -26.207600 31.084123 10.781740 -8.452733 -0.461369 -9.174355 31.199323 0.376233 -19.386022 -28.861007 -0.814200 -5.757900 16.083500 0.963434 -0.948736 -5.653507 3.301631 0.039087 -9.264445 7.283235 0.022106 -0.071098 3.456600 0.172100 -1.302100 15.772777 -12.346256 -31.434781 14.771629 -20.788155 -3.867727 -1.093878 -2.363145 28.669111 -7.125000 0.000000 0.000000 -45.945454 19.798128 -54.725542 -12.590803 23.090121 -2.212379 1.064810 0.192410 -2.949137 7.125000 0.000000 0.000000 
6.158171 17.371538 -8.891524 -3.001787 2.328498 5.437097 -7.990898 -14.056168 -15.274001 -0.312541 8.649928 26.170869 -0.764488 5.954108 -8.461853 2.205900 -9.282500 -26.683000 31.153758 10.798770 -8.373446 -0.431801 -9.127739 31.067872 0.407488 -19.477103 -28.803272 -0.821400 -5.782900 16.155700 0.980885 -1.013344 -5.672015 3.338088 0.011559 -9.334922 7.381917 0.012179 0.002622 3.570900 0.171500 -1.288400 15.540682 -12.123930 -30.923315 14.858340 -20.859533 -3.912375 -1.086415 -2.375504 28.152287 -7.125000 0.000000 0.000000 -45.662718 19.855329 -54.118676 -12.516214 22.907782 -2.183592 1.046631 0.200774 -3.386993 7.125000 0.000000 0.000000 
6.157523 17.374238 -8.893468 -3.092364 2.368019 5.431965 -7.881493 -14.242269 -15.121155 -0.341157 8.591058 26.018632 -0.803232 6.108820 -8.444325 2.193000 -9.257100 -26.602900 31.290069 10.936132 -8.251455 -0.411421 -9.099830 30.994987 0.406272 -19.579641 -28.932531 -0.852000 -5.887000 16.456900 1.006615 -1.062169 -5.700324 3.345330 -0.017231 -9.386696 7.446091 -0.003244 0.137810 3.646000 0.166700 -1.217300 15.295450 -12.016392 -30.682519 14.882345 -20.838833 -3.927284 -1.087851 -2.373538 27.966752 -7.125000 0.000000 0.000000 -45.400099 20.151006 -54.539478 -12.390312 22.589969 -2.120215 1.040005 0.203959 -2.772810 7.125000 0.000000 0.000000 
6.153851 17.379855 -8.896924 -3.161812 2.341047 5.515015 -7.784046 -14.307254 -15.104502 -0.374935 8.542718 25.866026 -0.849674 6.320842 -8.519581 2.268800 -9.404800 -27.069900 31.407514 11.154227 -8.235904 -0.386692 -9.084001 30.917240 0.496907 -19.900363 -28.842777 -0.795500 -5.693000 15.896200 1.021100 -1.042924 -5.730615 3.361876 -0.010302 -9.389203 7.448576 -0.093510 0.315436 3.654400 0.125400 -1.056000 15.182382 -11.977696 -30.712837 14.811189 -20.717120 -3.903049 -1.107251 -2.358836 27.975124 -7.125000 0.000000 0.000000 -45.126594 20.057265 -54.298054 -12.353593 22.416081 -2.081066 1.052926 0.212623 -2.772484 7.125000 0.000000 0.000000 
6.151691 17.381475 -8.905889 -3.009684 2.326632 5.537057 -7.938843 -14.394708 -15.039455 -0.417002 8.499602 25.743112 -0.942508 6.753167 -8.668691 2.523300 -9.880200 -28.589700 31.226459 11.122076 -8.296451 -0.374377 -9.068070 30.852916 0.626173 -20.177168 -28.515937 -0.713900 -5.399700 15.052200 0.996897 -1.035299 -5.747043 3.374104 -0.002372 -9.421748 7.468580 -0.235136 0.480639 3.675700 0.060400 -0.879900 15.159949 -11.874136 -30.718819 14.742266 -20.612598 -3.877937 -1.118091 -2.353718 27.984507 -7.125000 0.000000 0.000000 -44.853673 19.781178 -53.380448 -12.360201 22.345257 -2.065282 1.061839 0.231572 -3.478822 7.125000 0.000000 0.000000 
6.151475 17.381367 -8.913881 -2.903253 2.373397 5.528562 -8.038360 -14.568817 -14.924186 -0.452512 8.444044 25.594126 -0.989457 6.937924 -8.608410 2.557500 -9.941700 -28.788200 31.087156 10.991452 -8.356597 -0.376970 -9.068421 30.851732 0.636710 -20.154981 -28.445696 -0.728400 -5.453100 15.205600 0.969011 -1.039083 -5.749150 3.322765 -0.008449 -9.472103 7.473624 -0.378691 0.397234 3.692100 -0.008500 -0.900400 15.138402 -11.806323 -30.783400 14.677723 -20.528625 -3.856541 -1.120950 -2.356674 28.031719 -7.125000 0.000000 0.000000 -44.461104 19.453109 -51.827500 -12.415974 22.383220 -2.085967 1.038896 0.267126 -4.756525 7.125000 0.000000 0.000000 
6.148882 17.385147 -8.918094 -2.934054 2.405156 5.518480 -7.980487 -14.674945 -14.826984 -0.481703 8.381967 25.424424 -1.012069 6.994065 -8.468161 2.508000 -9.852400 -28.500000 31.129849 10.910405 -8.384921 -0.384921 -9.080047 30.886274 0.636221 -20.147408 -28.431766 -0.686200 -5.295900 14.754500 0.962597 -1.028955 -5.752381 3.290290 -0.007488 -9.524752 7.509268 -0.487518 0.210881 3.731600 -0.058800 -0.988100 15.044262 -11.718724 -30.784291 14.666269 -20.510067 -3.862396 -1.118006 -2.372574 28.009017 -7.125000 0.000000 0.000000 -44.018561 19.005068 -49.644998 -12.554690 22.588791 -2.151712 0.996128 0.297476 -6.804473 7.125000 0.000000 0.000000 
6.145642 17.387631 -8.922630 -2.802387 2.373727 5.522077 -8.107160 -14.772747 -14.681270 -0.521215 8.317694 25.265786 -1.065844 7.226771 -8.499708 2.541000 -9.912000 -28.692200 30.961008 10.845541 -8.467455 -0.392245 -9.093670 30.912980 0.668590 -20.196333 -28.336784 -0.608000 -4.990800 13.882300 0.949897 -1.022756 -5.768112 3.330859 0.002349 -9.567388 7.527859 -0.634559 0.192793 3.751100 -0.126500 -0.925800 14.908989 -11.691184 -31.030140 14.657973 -20.474295 -3.864968 -1.122552 -2.379048 28.334358 -7.125000 0.000000 0.000000 -43.722253 18.903812 -48.575444 -12.583835 22.588694 -2.165951 0.975439 0.291037 -8.015103 7.125000 0.000000 0.000000 
6.141214 17.389035 -8.926518 -2.708380 2.335123 5.610108 -8.184809 -14.858958 -14.586032 -0.572015 8.239223 25.047555 -1.151695 7.578458 -8.461058 2.626300 -10.064000 -29.184300 30.839021 10.876520 -8.634396 -0.399890 -9.130986 30.973313 0.681203 -20.272495 -28.389681 -0.567900 -4.826200 13.413600 0.933448 -1.001140 -5.795079 3.323719 0.010269 -9.588238 7.530018 -0.813950 0.255148 3.750400 -0.212300 -0.818100 14.839456 -11.729344 -31.536496 14.608891 -20.389006 -3.845418 -1.139664 -2.366218 29.010987 -7.125000 0.000000 0.000000 -43.467425 19.038019 -48.375504 -12.494862 22.365061 -2.127748 0.961216 0.285208 -8.430954 7.125000 0.000000 0.000000 
6.135814 17.396272 -8.929543 -2.714050 2.318038 5.775218 -8.141324 -14.920608 -14.606168 -0.620752 8.168366 24.815777 -1.240942 7.922798 -8.330099 2.760300 -10.296500 -29.942300 30.832021 10.904464 -8.905078 -0.408489 -9.184713 31.048236 0.747725 -20.458613 -28.267465 -0.524600 -4.641600 12.889000 0.908144 -0.967275 -5.808039 3.202838 0.008671 -9.564189 7.508558 -0.993658 0.113340 3.716100 -0.303200 -0.888600 14.833666 -11.619037 -31.440647 14.659592 -20.448911 -3.858203 -1.122615 -2.369031 28.982532 -7.125000 0.000000 0.000000 -43.075269 19.115104 -48.260419 -12.448220 22.196218 -2.106794 0.925890 0.302217 -8.596472 7.125000 0.000000 0.000000 
6.128037 17.407289 -8.935591 -2.631557 2.251712 6.037780 -8.155184 -15.062271 -14.708924 -0.662560 8.122703 24.638288 -1.250742 7.978091 -8.383880 2.599400 -10.016400 -29.029900 30.705537 11.018014 -9.305176 -0.405718 -9.236759 31.067181 0.813175 -20.498719 -27.955735 -0.579700 -4.875500 13.553900 0.874698 -0.928044 -5.811489 3.094491 0.014667 -9.510376 7.398419 -1.200845 -0.290432 3.606200 -0.414800 -1.159000 14.829402 -11.603396 -31.260363 14.700926 -20.515151 -3.869454 -1.105813 -2.371635 28.765422 -7.125000 0.000000 0.000000 -42.587966 19.289196 -48.279971 -12.463464 22.101860 -2.106944 0.883726 0.301685 -8.548654 7.125000 0.000000 0.000000 
6.120152 17.409017 -8.944016 -2.684550 2.185299 6.200850 -8.007173 -15.294155 -14.732630 -0.691282 8.084863 24.500324 -1.204731 7.831027 -8.637894 2.219000 -9.308000 -26.763700 30.756134 11.059313 -9.526669 -0.397724 -9.255545 31.045599 0.802586 -20.350965 -27.797045 -0.628000 -5.071000 14.111200 0.867004 -0.884928 -5.835249 3.027811 0.024726 -9.561121 7.345915 -1.377484 -0.572136 3.548800 -0.507000 -1.322100 14.776732 -11.824568 -31.792808 14.613665 -20.405059 -3.836182 -1.131404 -2.347427 29.496376 -7.125000 0.000000 0.000000 -42.243146 19.347297 -47.618157 -12.372162 21.882506 -2.075208 0.850765 0.301202 -9.480415 7.125000 0.000000 0.000000 
